Coordinates
version=1
nRows=9
nColumns=24
inDegrees=yes

Units are S.I. units (second, meters, Newtons, ...)
Angles are in degrees.

endheader
time	pelvis_tilt	pelvis_list	pelvis_rotation	pelvis_tx	pelvis_ty	pelvis_tz	hip_flexion_r	hip_adduction_r	hip_rotation_r	knee_angle_r	ankle_angle_r	subtalar_angle_r	mtp_angle_r	hip_flexion_l	hip_adduction_l	hip_rotation_l	knee_angle_l	ankle_angle_l	subtalar_angle_l	mtp_angle_l	lumbar_extension	lumbar_bending	lumbar_rotation
      2.47000000	      4.89993441	     12.66767568	     -1.91115562	     -0.30403562	      0.99247078	     -0.03375915	     23.48673498	    -15.12246493	     -6.36706785	    -28.47928587	      2.68610946	     -5.50052640	     14.77691328	     -3.46224044	     16.54786511	    -10.34073261	    -12.09860796	     10.53189244	      3.76277315	     15.99716312	    -19.03061910	    -14.89262757	     27.28929883
      2.47500000	      4.97694009	     12.73147152	     -1.71593233	     -0.29903617	      0.99217297	     -0.03376928	     23.01570498	    -15.21151157	     -7.14585787	    -26.46837024	      2.06803458	     -4.95449675	     14.58373729	     -3.96154954	     16.59521013	    -10.10695499	    -12.01963560	     10.80099060	      3.94749690	     15.58559244	    -19.14284616	    -14.92222445	     27.02307246
      2.48000000	      5.07157267	     12.79497793	     -1.53974877	     -0.29403388	      0.99184599	     -0.03371446	     22.51292122	    -15.27655389	     -7.92469652	    -24.44982325	      1.44185596	     -4.34497244	     14.41808948	     -4.47109533	     16.63846444	     -9.87795018	    -11.95681611	     11.12363425	      4.11673462	     15.02499230	    -19.27037611	    -14.95871984	     26.83616888
      2.48500000	      5.07626267	     12.89504755	     -1.30121286	     -0.28904768	      0.99136443	     -0.03369487	     22.09758013	    -15.37887884	     -8.75726973	    -22.46155989	      0.82700806	     -3.67361523	     14.33854163	     -4.87463415	     16.70279613	     -9.62928186	    -11.92465997	     11.39152901	      4.32467923	     14.74236819	    -19.32028720	    -15.02416816	     26.46312269
      2.49000000	      5.12548753	     12.98856093	     -1.09167228	     -0.28405906	      0.99088490	     -0.03361451	     21.62835590	    -15.45119439	     -9.58100119	    -20.48337544	      0.21950550	     -2.91778378	     14.29552977	     -5.32492492	     16.76054751	     -9.37567312	    -11.88918012	     11.68185634	      4.49047763	     14.46116696	    -19.41408576	    -15.08796161	     26.17647825
      2.49500000	      5.15112365	     13.08267011	     -0.88401477	     -0.27906865	      0.99034091	     -0.03348648	     21.18286633	    -15.50106659	    -10.38569248	    -18.53412827	     -0.37277503	     -2.10495887	     14.28506988	     -5.74134820	     16.81179666	     -9.12792498	    -11.86956494	     11.96901705	      4.64892908	     14.16016412	    -19.48270530	    -15.15675354	     25.88078677
      2.50000000	      5.15969499	     13.18440689	     -0.67568028	     -0.27409138	      0.98972715	     -0.03331818	     20.76165832	    -15.54030489	    -11.16956299	    -16.63314993	     -0.93669653	     -1.22784302	     14.30091139	     -6.12748186	     16.86394165	     -8.88080630	    -11.87237986	     12.26546325	      4.80150809	     13.85904190	    -19.53525577	    -15.23639205	     25.59822410
      2.50500000	      5.16462700	     13.29114946	     -0.48159097	     -0.26909710	      0.98906665	     -0.03310054	     20.35724641	    -15.56523896	    -11.93981931	    -14.79595793	     -1.47385687	     -0.30361570	     14.33685238	     -6.50942301	     16.91998255	     -8.63961204	    -11.87331053	     12.58188901	      4.93345052	     13.52864614	    -19.57879856	    -15.32720783	     25.33162534
      2.51000000	      5.12455060	     13.42181183	     -0.27163392	     -0.26419093	      0.98829044	     -0.03286237	     20.03233511	    -15.60513186	    -12.66014031	    -13.06300639	     -1.95040531	      0.68107437	     14.36742179	     -6.80457565	     16.98961576	     -8.40402450	    -11.94480886	     12.90019332	      5.07799912	     13.27837945	    -19.59036718	    -15.44513774	     25.05964846
